<svg version="1.1" xmlns="http://www.w3.org/2000/svg" xmlns:xlink="http://www.w3.org/1999/xlink" viewBox="0 0 226 226"><g fill="none" fill-rule="nonzero" stroke="none" stroke-width="1" stroke-linecap="butt" stroke-linejoin="miter" stroke-miterlimit="10" stroke-dasharray="" stroke-dashoffset="0" font-family="none" font-weight="none" font-size="none" text-anchor="none" style="mix-blend-mode: normal"><path d="M0,226v-226h226v226z" fill="#222528"></path><g fill="#ffffff"><path d="M112.85875,8.89875c-30.71774,0 -58.37975,13.42203 -77.38734,34.65039c-2.26755,2.38768 -3.05763,5.81939 -2.06244,8.95825c0.99519,3.13886 3.61824,5.48842 6.8473,6.13338c3.22906,0.64496 6.55343,-0.51669 8.67804,-3.03241c15.73313,-17.57131 38.45859,-28.62961 63.92445,-28.62961c47.5374,0 85.88,38.3426 85.88,85.88c0,47.5374 -38.3426,85.88 -85.88,85.88c-25.46092,0 -48.18634,-11.05729 -63.92445,-28.62961c-2.12461,-2.51573 -5.44898,-3.67739 -8.67804,-3.03243c-3.22907,0.64496 -5.85212,2.99453 -6.84731,6.13339c-0.99518,3.13886 -0.2051,6.57058 2.06246,8.95825c19.01164,21.22736 46.6737,34.65039 77.38734,34.65039c57.30852,0 103.96,-46.65148 103.96,-103.96c0,-57.30852 -46.65148,-103.96 -103.96,-103.96zM49.68469,72.09047c-2.34858,0.06998 -4.57766,1.05154 -6.215,2.73672l-30.83664,30.83664c-2.25664,1.71426 -3.5789,4.38745 -3.57197,7.22136c0.00694,2.83391 1.34227,5.5006 3.60728,7.20379l30.80133,30.80133c2.26739,2.3616 5.63433,3.31291 8.80232,2.48704c3.16799,-0.82587 5.64198,-3.29986 6.46785,-6.46785c0.82587,-3.16799 -0.12544,-6.53493 -2.48704,-8.80232l-16.20844,-16.20844h82.13688c3.26015,0.04611 6.29258,-1.66675 7.93611,-4.48269c1.64353,-2.81594 1.64353,-6.29868 0,-9.11462c-1.64353,-2.81594 -4.67596,-4.5288 -7.93611,-4.48269h-82.13687l16.20844,-16.20844c2.67367,-2.59892 3.47758,-6.57267 2.02437,-10.00649c-1.45322,-3.43381 -4.86544,-5.62326 -8.59249,-5.51335z"></path></g></g></svg>